<svg xmlns="http://www.w3.org/2000/svg" width="32" height="32" viewBox="0 0 32 32">
  <defs>
    <style>
      .cls-1 {
        fill: #fff;
        fill-rule: evenodd;
      }
    </style>
  </defs>
  <path id="link" class="cls-1" d="M447.522,4874.48V4871a0.7,0.7,0,0,1,.695-0.7h4.174a0.693,0.693,0,0,0,.7-0.69v-0.7a0.693,0.693,0,0,0-.7-0.69h-5.565a1.389,1.389,0,0,0-1.391,1.39v6.26a1.389,1.389,0,0,0,1.391,1.39h4.87a1.39,1.39,0,0,0,1.391-1.39v-0.7h-4.87A0.692,0.692,0,0,1,447.522,4874.48Zm7.652-9.74H450.3a1.389,1.389,0,0,0-1.391,1.39v0.7h4.87a0.693,0.693,0,0,1,.695.69V4871a0.7,0.7,0,0,1-.695.7h-4.174a0.7,0.7,0,0,1-.7-0.7v2.09a0.693,0.693,0,0,0,.7.69h5.565a1.39,1.39,0,0,0,1.391-1.39v-6.26A1.39,1.39,0,0,0,455.174,4864.74ZM451,4855a16,16,0,1,0,16,16A16,16,0,0,0,451,4855Zm0,29.22A13.22,13.22,0,1,1,464.217,4871,13.219,13.219,0,0,1,451,4884.22Z" transform="translate(-435 -4855)"/>
</svg>
